<svg version="1.1" id="Layer_1" xmlns="http://www.w3.org/2000/svg" x="0" y="0" viewBox="0 0 215 59.2" style="enable-background:new 0 0 215 59.2" xml:space="preserve"><style>.st0{fill:#f7b033}.st1{fill:#1c1c1c}</style><path class="st0" d="M45.7 36c0-2.9-2.2-4.6-5.1-4.6H33v9.2h7.6c2.8.1 5.1-1.7 5.1-4.6m-.8 23.2L38.2 47h-5.3v12.2h-7.3V25h16c7.1 0 11.5 4.7 11.5 11 0 6-3.8 9.3-7.5 10.2l7.7 13h-8.4zM56.5 59.2V25h24.2v6.4H63.8v7.3h16.6v6.4H63.8v7.7h16.9v6.4zM84.4 25h7.3v34.2h-7.3zM119.9 59.2l-16.3-22.3v22.3h-7.2V25h7.4l15.9 21.5V25h7.3v34.2zM139.6 59.2V31.4h-10V25h27.3v6.4h-10v27.8zM159.5 59.2V25h24.2v6.4h-16.9v7.3h16.5v6.4h-16.5v7.7h16.9v6.4zM207.4 36c0-2.9-2.2-4.6-5.1-4.6h-7.6v9.2h7.6c2.9.1 5.1-1.7 5.1-4.6m-.8 23.2L199.9 47h-5.3v12.2h-7.3V25h16c7.1 0 11.5 4.7 11.5 11 0 6-3.8 9.3-7.5 10.2l7.7 13h-8.4z"/><path class="st1" d="M13.7 59.2h7.5V27.8l-7.5 4.6z"/><path class="st1" d="M47.8 0 21.2 16.6V9.5h-7.5v11.8L0 29.7v8.8L47.8 8.8l16.8 10.3v-8.7z"/></svg>